<?xml version="1.0" encoding="UTF-8"?>
<!DOCTYPE svg PUBLIC "-//W3C//DTD SVG 1.1//EN" "http://www.w3.org/Graphics/SVG/1.1/DTD/svg11.dtd">

<svg xmlns="http://www.w3.org/2000/svg" xml:space="preserve" width="4.5mm" height="4.5mm" version="1.1" style="shape-rendering:geometricPrecision; text-rendering:geometricPrecision; image-rendering:optimizeQuality; fill-rule:evenodd; clip-rule:evenodd"
viewBox="0 0 20.21 20.21"
 xmlnsXlink="http://www.w3.org/1999/xlink"
 xmlnsXodm="http://www.corel.com/coreldraw/odm/2003">
 <defs>

 </defs>
 <g fill='#C0C2D9'>
  <metadata id="CorelCorpID_0Corel-Layer"/>
  <path class="fil0" d="M7.99 2.12l0 5.86 -5.86 0c-1.17,0 -2.12,0.95 -2.12,2.12 0,1.17 0.95,2.12 2.12,2.12l5.86 0 0 5.86c0,1.17 0.95,2.12 2.12,2.12 1.17,0 2.12,-0.95 2.12,-2.12l0 -5.86 5.86 0c1.17,0 2.12,-0.95 2.12,-2.12 0,-1.17 -0.95,-2.12 -2.12,-2.12l-5.86 0 0 -5.86c0,-1.17 -0.95,-2.12 -2.12,-2.12 -1.17,0 -2.12,0.95 -2.12,2.12z"/>
 </g>
</svg>
